# xmcd CD database file
#
# Track frame offsets:
#	150
#	13922
#	22460
#	33665
#	46317
#	69382
#	77682
#	88080
#	103410
#	114452
#	142592
#	153422
#	158107
#	169227
#	179935
#	191277
#	203392
#	217942
#
# Disc length: 3043 seconds
#
# Revision: 1
# Processed by: cddbd v1.4PL0 Copyright (c) Steve Scherf et al.
# Submitted via: CDex 1.50
#
DISCID=f70be112
DTITLE=Fats Domino - In Concert ( Greatest Hits - Live)
DYEAR=1996
DGENRE=Rock and Roll
TTITLE0=Bluebery Hill
TTITLE1=I´m Ready
TTITLE2=Ain´t That A Shame
TTITLE3=I´m Walking
TTITLE4=Domino Twist
TTITLE5=My Toot Toot
TTITLE6=My Girl Josephine
TTITLE7=Jambalay (On The Bayou)
TTITLE8=The Fat Man
TTITLE9=So Long - C.C. Rider
TTITLE10=Walking To New Orleans
TTITLE11=Whole Lotta Loving
TTITLE12=I Want To Walk You Home
TTITLE13=Blue Monday
TTITLE14=Going To The River
TTITLE15=Let The Four Winds Blow
TTITLE16=I´m In Love Again
TTITLE17=I´m gonna Be A Wheel Someday
EXTD=YEAR: 1996
EXTT0=
EXTT1=
EXTT2=
EXTT3=
EXTT4=
EXTT5=
EXTT6=
EXTT7=
EXTT8=
EXTT9=
EXTT10=
EXTT11=
EXTT12=
EXTT13=
EXTT14=
EXTT15=
EXTT16=
EXTT17=
PLAYORDER=
